<svg version="1.1" xmlns="http://www.w3.org/2000/svg" xmlns:xlink="http://www.w3.org/1999/xlink" width="536.97509765625" height="270"><defs/><g><g transform="translate(-238,-118) scale(1,1)"><rect fill="#C0C0C0" stroke="none" x="255" y="199" width="205.193359375" height="117" opacity="0.2"/></g><g transform="translate(-238,-118) scale(1,1)"><rect fill="#ffffff" stroke="none" x="248" y="192" width="205.193359375" height="117"/></g><g transform="translate(-238,-118) scale(1,1)"><path fill="none" stroke="#000000" d="M 248 192 L 453.193359375 192 L 453.193359375 309 L 248 309 L 248 192 Z Z" stroke-miterlimit="10"/></g><g transform="translate(-238,-118) scale(1,1)"><path fill="none" stroke="#000000" d="M 248 217 L 453.193359375 217" stroke-miterlimit="10"/></g><g transform="translate(-238,-118) scale(1,1)"><path fill="none" stroke="#000000" d="M 248 285 L 453.193359375 285" stroke-miterlimit="10"/></g><g transform="translate(-238,-118) scale(1,1)"><g><path fill="none" stroke="none"/><text fill="#000000" stroke="none" font-family="Arial" font-size="13px" font-style="normal" font-weight="bold" text-decoration="none" x="337.587158203125" y="211.5">Pion</text></g></g><g transform="translate(-238,-118) scale(1,1)"><g><path fill="none" stroke="none"/><text fill="#000000" stroke="none" font-family="Arial" font-size="13px" font-style="normal" font-weight="normal" text-decoration="none" x="253" y="234.5">-reine: boolean</text></g></g><g transform="translate(-238,-118) scale(1,1)"><g><path fill="none" stroke="none"/><text fill="#000000" stroke="none" font-family="Arial" font-size="13px" font-style="normal" font-weight="normal" text-decoration="none" x="253" y="249.5">-blanc: boolean</text></g></g><g transform="translate(-238,-118) scale(1,1)"><g><path fill="none" stroke="none"/><text fill="#000000" stroke="none" font-family="Arial" font-size="13px" font-style="normal" font-weight="normal" text-decoration="none" x="253" y="264.5">-x: Integer</text></g></g><g transform="translate(-238,-118) scale(1,1)"><g><path fill="none" stroke="none"/><text fill="#000000" stroke="none" font-family="Arial" font-size="13px" font-style="normal" font-weight="normal" text-decoration="none" x="253" y="279.5">-y: Integer</text></g></g><g transform="translate(-238,-118) scale(1,1)"><g><path fill="none" stroke="none"/><text fill="#000000" stroke="none" font-family="Arial" font-size="13px" font-style="normal" font-weight="normal" text-decoration="none" x="253" y="304.5">+Pion(x: int, y: int, blanc: boolean)</text></g></g><g transform="translate(-238,-118) scale(1,1)"><rect fill="#C0C0C0" stroke="none" x="479" y="135" width="292.97509765625" height="250" opacity="0.2"/></g><g transform="translate(-238,-118) scale(1,1)"><rect fill="#ffffff" stroke="none" x="472" y="128" width="292.97509765625" height="250"/></g><g transform="translate(-238,-118) scale(1,1)"><path fill="none" stroke="#000000" d="M 472 128 L 764.97509765625 128 L 764.97509765625 378 L 472 378 L 472 128 Z Z" stroke-miterlimit="10"/></g><g transform="translate(-238,-118) scale(1,1)"><path fill="none" stroke="#000000" d="M 472 153 L 764.97509765625 153" stroke-miterlimit="10"/></g><g transform="translate(-238,-118) scale(1,1)"><path fill="none" stroke="#000000" d="M 472 191 L 764.97509765625 191" stroke-miterlimit="10"/></g><g transform="translate(-238,-118) scale(1,1)"><g><path fill="none" stroke="none"/><text fill="#000000" stroke="none" font-family="Arial" font-size="13px" font-style="normal" font-weight="bold" text-decoration="none" x="601.507568359375" y="147.5">Partie</text></g></g><g transform="translate(-238,-118) scale(1,1)"><g><path fill="none" stroke="none"/><text fill="#000000" stroke="none" font-family="Arial" font-size="13px" font-style="normal" font-weight="normal" text-decoration="none" x="477" y="170.5">+listePions: ArrayList&lt;Pion&gt;</text></g></g><g transform="translate(-238,-118) scale(1,1)"><g><path fill="none" stroke="none"/><text fill="#000000" stroke="none" font-family="Arial" font-size="13px" font-style="normal" font-weight="normal" text-decoration="none" x="477" y="185.5">+traitAuxBlancs: boolean</text></g></g><g transform="translate(-238,-118) scale(1,1)"><g><path fill="none" stroke="none"/><text fill="#000000" stroke="none" font-family="Arial" font-size="13px" font-style="normal" font-weight="normal" text-decoration="none" x="477" y="208.5">+Partie()</text></g></g><g transform="translate(-238,-118) scale(1,1)"><g><path fill="none" stroke="none"/><text fill="#000000" stroke="none" font-family="Arial" font-size="13px" font-style="normal" font-weight="normal" text-decoration="none" x="477" y="223.5">+Partie(listePions, traitAuxBlancs: boolean)</text></g></g><g transform="translate(-238,-118) scale(1,1)"><g><path fill="none" stroke="none"/><text fill="#000000" stroke="none" font-family="Arial" font-size="13px" font-style="normal" font-weight="normal" text-decoration="none" x="477" y="238.5">+afficher()</text></g></g><g transform="translate(-238,-118) scale(1,1)"><g><path fill="none" stroke="none"/><text fill="#000000" stroke="none" font-family="Arial" font-size="13px" font-style="normal" font-weight="normal" text-decoration="none" x="477" y="253.5">+charger()</text></g></g><g transform="translate(-238,-118) scale(1,1)"><g><path fill="none" stroke="none"/><text fill="#000000" stroke="none" font-family="Arial" font-size="13px" font-style="normal" font-weight="normal" text-decoration="none" x="477" y="268.5">+sauvegarder()</text></g></g><g transform="translate(-238,-118) scale(1,1)"><g><path fill="none" stroke="none"/><text fill="#000000" stroke="none" font-family="Arial" font-size="13px" font-style="normal" font-weight="normal" text-decoration="none" x="477" y="283.5">+tourDeJeu(): boolean</text></g></g><g transform="translate(-238,-118) scale(1,1)"><g><path fill="none" stroke="none"/><text fill="#000000" stroke="none" font-family="Arial" font-size="13px" font-style="normal" font-weight="normal" text-decoration="none" x="477" y="298.5">-verifierCase(x: int, y: int): Pion</text></g></g><g transform="translate(-238,-118) scale(1,1)"><g><path fill="none" stroke="none"/><text fill="#000000" stroke="none" font-family="Arial" font-size="13px" font-style="normal" font-weight="normal" text-decoration="none" x="477" y="313.5">-compter(blanc: boolean): Pion</text></g></g><g transform="translate(-238,-118) scale(1,1)"><g><path fill="none" stroke="none"/><text fill="#000000" stroke="none" font-family="Arial" font-size="13px" font-style="normal" font-weight="normal" text-decoration="none" x="477" y="328.5">-verifierPrisePossible(blanc: boolean): List&lt;Pion&gt;</text></g></g><g transform="translate(-238,-118) scale(1,1)"><g><path fill="none" stroke="none"/><text fill="#000000" stroke="none" font-family="Arial" font-size="13px" font-style="normal" font-weight="normal" text-decoration="none" x="477" y="343.5">-choixPion(pionsPossibles: List&lt;Pion&gt;): Pion</text></g></g><g transform="translate(-238,-118) scale(1,1)"><g><path fill="none" stroke="none"/><text fill="#000000" stroke="none" font-family="Arial" font-size="13px" font-style="normal" font-weight="normal" text-decoration="none" x="477" y="358.5">-deplacement(pion: Pion): boolean</text></g></g><g transform="translate(-238,-118) scale(1,1)"><g><path fill="none" stroke="none"/><text fill="#000000" stroke="none" font-family="Arial" font-size="13px" font-style="normal" font-weight="normal" text-decoration="none" x="477" y="373.5">-testTransformation(pion: Pion)</text></g></g></g></svg>